<?xml version="1.0" encoding="UTF-8"?>
<svg class = "ordiAxro" xmlns="http://www.w3.org/2000/svg" version="1.1" viewBox="0 0 400 400">
  <defs>
    <style>
      .cls-1, .cls-2 {
        stroke-width: 0px;
      }

      .cls-1, .cls-3 {
        fill: #231f20;
      }

      .cls-2 {
        fill: #fff;
      }

      .cls-4 {
        display: none;
      }

      .cls-3 {
        stroke: #231f20;
        stroke-miterlimit: 10;
      }
    </style>
  </defs>
  <g id="Layer_2" data-name="Layer 2" class="cls-4">
    <rect class="cls-3" x="0" width="400" height="400"/>
  </g>
  <g id="Layer_1" data-name="Layer 1">
    <path class="cls-1" d="M200,352.5c-84.09,0-152.5-68.41-152.5-152.5S115.91,47.5,200,47.5s152.5,68.41,152.5,152.5-68.41,152.5-152.5,152.5ZM200,52.5c-81.33,0-147.5,66.17-147.5,147.5s66.17,147.5,147.5,147.5,147.5-66.17,147.5-147.5S281.33,52.5,200,52.5Z"/>
    <path class="cls-1" d="M175,175v50h50v-50h-50ZM210,210h-20v-20h20v20Z"/>
    <g>
      <polygon class="cls-1" points="304.13 146.65 304.13 95.87 253.35 95.87 355.39 44.61 304.13 146.65"/>
      <path class="cls-1" d="M303.63,148.76v-52.39h-52.39l105.28-52.89-.68,1.35-52.21,103.93ZM255.46,95.37h49.17v49.17l49.64-98.81-98.81,49.64Z"/>
    </g>
    <rect class="cls-1" x="270.09" y="184.08" width="5" height="177.02" transform="translate(-112.91 272.58) rotate(-45)"/>
    <rect class="cls-1" x="120.49" y="28.22" width="5" height="189.53" transform="translate(-50.94 122.99) rotate(-45)"/>
    <rect class="cls-1" x="33.76" y="272.22" width="183.04" height="5" transform="translate(-157.56 169.05) rotate(-45)"/>
    <rect class="cls-1" x="184.81" y="126.68" width="172.04" height="5" transform="translate(-12.02 229.34) rotate(-45)"/>
    <g>
      <polygon class="cls-1" points="95.87 146.65 95.87 95.87 146.65 95.87 44.61 44.61 95.87 146.65"/>
      <path class="cls-1" d="M96.37,148.76L43.48,43.48l105.28,52.89h-52.39v52.39ZM45.73,45.73l49.64,98.81v-49.17h49.17L45.73,45.73Z"/>
    </g>
    <g>
      <polygon class="cls-1" points="95.87 253.35 95.87 304.13 146.65 304.13 44.61 355.39 95.87 253.35"/>
      <path class="cls-1" d="M43.48,356.52l52.89-105.28v52.39h52.39l-105.28,52.89ZM95.37,255.46l-49.64,98.81,98.81-49.64h-49.17v-49.17Z"/>
    </g>
    <g>
      <polygon class="cls-1" points="304.13 253.35 304.13 304.13 253.35 304.13 355.39 355.39 304.13 253.35"/>
      <path class="cls-1" d="M356.52,356.52l-105.28-52.89h52.39v-52.39l52.89,105.28ZM255.46,304.63l98.81,49.64-49.64-98.81v49.17h-49.17Z"/>
    </g>
    <g>
      <line class="cls-1" x1="30" y1="208" x2="70" y2="208"/>
      <rect class="cls-2" x="30" y="205.5" width="40" height="5"/>
    </g>
    <g>
      <line class="cls-1" x1="30.39" y1="190" x2="70.39" y2="190"/>
      <rect class="cls-2" x="30.39" y="187.5" width="40" height="5"/>
    </g>
    <g>
      <line class="cls-1" x1="30.63" y1="172.37" x2="74.78" y2="172.37"/>
      <rect class="cls-2" x="30.63" y="169.87" width="44.15" height="5"/>
    </g>
    <g>
      <line class="cls-1" x1="30" y1="227" x2="74.78" y2="227"/>
      <rect class="cls-2" x="30" y="224.5" width="44.78" height="5"/>
    </g>
    <g>
      <line class="cls-1" x1="30.31" y1="154.74" x2="79.38" y2="154.74"/>
      <rect class="cls-2" x="30.31" y="152.24" width="49.06" height="5"/>
    </g>
    <g>
      <line class="cls-1" x1="30" y1="246" x2="79.69" y2="246"/>
      <rect class="cls-2" x="30" y="243.5" width="49.69" height="5"/>
    </g>
    <g>
      <polygon class="cls-1" points="327.46 176.34 315.61 195.11 337.26 200 315.61 204.89 327.46 223.66 308.69 211.81 303.8 233.45 298.91 211.81 280.15 223.66 292 204.89 270.35 200 292 195.11 280.15 176.34 298.91 188.19 303.8 166.55 308.69 188.19 327.46 176.34"/>
      <path class="cls-1" d="M303.8,235.72l-5.22-23.12-20.04,12.65,12.65-20.04-23.12-5.22,23.12-5.22-12.65-20.04,20.04,12.65,5.22-23.12,5.22,23.12,20.04-12.65-12.65,20.04,23.12,5.22-23.12,5.22,12.65,20.04-20.04-12.65-5.22,23.12ZM299.25,211l4.56,20.18,4.56-20.18,17.49,11.05-11.05-17.49,20.18-4.56-20.18-4.56,11.05-17.49-17.49,11.05-4.56-20.18-4.56,20.18-17.49-11.05,11.05,17.49-20.18,4.56,20.18,4.56-11.05,17.49,17.49-11.05Z"/>
    </g>
  </g>
</svg>